Coordinates
version=1
nRows=17
nColumns=40
inDegrees=yes

Units are S.I. units (second, meters, Newtons, ...)
Angles are in degrees.

endheader
time	pelvis_tilt	pelvis_list	pelvis_rotation	pelvis_tx	pelvis_ty	pelvis_tz	hip_flexion_r	hip_adduction_r	hip_rotation_r	knee_angle_r	knee_angle_r_beta	ankle_angle_r	subtalar_angle_r	mtp_angle_r	hip_flexion_l	hip_adduction_l	hip_rotation_l	knee_angle_l	knee_angle_l_beta	ankle_angle_l	subtalar_angle_l	mtp_angle_l	lumbar_extension	lumbar_bending	lumbar_rotation	arm_flex_r	arm_add_r	arm_rot_r	elbow_flex_r	pro_sup_r	wrist_flex_r	wrist_dev_r	arm_flex_l	arm_add_l	arm_rot_l	elbow_flex_l	pro_sup_l	wrist_flex_l	wrist_dev_l
     27.50250000	     -1.05478817	     -6.83148480	     -2.43666315	      0.88661857	      0.93097424	      0.44193294	     12.67839618	      3.38784610	    -13.47433573	     16.19432180	     16.19432180	      5.76848491	     -5.74057902	     -5.56407572	      4.82208582	    -12.50596720	     -8.71669281	     35.06974690	     35.06974690	     15.64767858	    -15.66840812	     -2.60668108	    -10.54273540	      8.46670864	      2.71684698	      9.90538512	    -12.72727179	     -2.98600853	     34.96466696	     45.84762927	      0.00000000	      0.00000000	      6.40586605	    -15.91024710	     -2.57889078	     66.12263350	     47.96903759	      0.00000000	      0.00000000
     27.51514286	     -0.92596132	     -6.95987948	     -2.11225963	      0.88659760	      0.93126851	      0.44435337	     12.01533342	      3.67961411	    -13.78161654	     15.90118061	     15.90118061	      6.09170235	     -5.59199474	     -5.68166788	      6.73525771	    -13.22095384	     -7.84456545	     39.04582342	     39.04582342	     14.05446752	    -16.77941069	     -3.13604997	    -10.69699998	      8.58004248	      2.73624468	     11.67834583	    -12.64274638	     -2.74148601	     36.11240589	     45.79974122	      0.00000000	      0.00000000	      5.90101838	    -15.94579967	     -2.55089019	     65.14157094	     47.94257394	      0.00000000	      0.00000000
     27.52778571	     -0.76680467	     -7.01977036	     -1.80463151	      0.88644932	      0.93153713	      0.44667765	     11.41196817	      3.86290162	    -14.13489112	     15.76558384	     15.76558384	      6.31321490	     -5.42113123	     -6.10382589	      8.70788437	    -13.82345723	     -6.96775789	     43.05033839	     43.05033839	     12.15008446	    -17.79222161	     -3.60299362	    -10.88727359	      8.65132742	      2.78623036	     13.13699966	    -12.87654222	     -1.24941593	     38.52186357	     45.63045033	      0.00000000	      0.00000000	      5.91543563	    -15.52921860	     -3.39343096	     62.45759435	     47.94063106	      0.00000000	      0.00000000
     27.54042857	     -0.73170675	     -7.15931271	     -1.49340677	      0.88612011	      0.93154936	      0.44903074	     10.86374719	      4.18461702	    -14.40689219	     15.45855614	     15.45855614	      6.59629325	     -5.31256492	     -6.21260618	     10.98645778	    -14.52667069	     -6.09323062	     47.18959810	     47.18959810	     10.32584333	    -18.39708966	     -3.26517931	    -10.96338019	      8.76657351	      2.80554435	     14.88138637	    -12.83261085	     -0.98853504	     39.82658601	     45.57794653	      0.00000000	      0.00000000	      5.38102612	    -15.46823885	     -3.39216479	     61.32046063	     47.91275285	      0.00000000	      0.00000000
     27.55307143	     -0.64432830	     -7.15025206	     -1.19433524	      0.88558562	      0.93162040	      0.45116761	     10.40205880	      4.30824442	    -14.59156530	     15.38988852	     15.38988852	      6.83993236	     -5.34583778	     -6.56592951	     13.32411509	    -14.84551899	     -4.98117865	     51.35715713	     51.35715713	      9.47548342	    -18.69445814	      0.26048676	    -11.13404955	      8.73240936	      2.73707065	     16.33282389	    -13.10803589	      0.52621804	     42.79999704	     45.39913537	      0.00000000	      0.00000000	      5.45463392	    -15.07589113	     -4.16098211	     58.23428056	     47.90214694	      0.00000000	      0.00000000
     27.56571429	     -0.52023002	     -7.30651697	     -0.90108760	      0.88503346	      0.93166950	      0.45329884	      9.83849788	      4.62702702	    -14.82847007	     15.20248337	     15.20248337	      7.08704821	     -5.28577465	     -6.63080517	     15.50547409	    -15.41705846	     -4.09890358	     55.04703450	     55.04703450	      7.62161903	    -18.96402431	      1.05370208	    -11.39502626	      8.84097407	      3.06548080	     18.10129246	    -13.21196327	      0.63456502	     43.91421166	     45.36397282	      0.00000000	      0.00000000	      4.97208694	    -14.86774842	     -4.10723497	     57.45196498	     47.87813026	      0.00000000	      0.00000000
     27.57835714	     -0.60803155	     -7.25527310	     -0.58879375	      0.88417341	      0.93151830	      0.45509380	      9.60954634	      4.68819832	    -15.01220159	     15.15895558	     15.15895558	      7.32978787	     -5.37556096	     -6.84688413	     18.16869313	    -15.31724463	     -2.69727728	     58.88491606	     58.88491606	      8.33120871	    -18.93736086	      9.05274489	    -11.43247955	      8.73106152	      3.25375136	     18.93394093	    -14.02376194	      2.86036263	     48.03844992	     45.12968958	      0.00000000	      0.00000000	      5.34626876	    -14.19137489	     -5.00361096	     53.70816265	     47.85605803	      0.00000000	      0.00000000
     27.59100000	     -0.61047553	     -7.34134025	     -0.27536067	      0.88341380	      0.93145068	      0.45701677	      9.23497795	      4.93000142	    -15.19932103	     15.02564636	     15.02564636	      7.59893288	     -5.44019307	     -6.86935013	     20.33145099	    -15.58536142	     -1.82689641	     61.66933998	     61.66933998	      6.81870769	    -19.08595222	      9.93932058	    -11.55955634	      8.71389646	      3.07952666	     20.81180958	    -13.80587266	      2.90969930	     49.53584980	     45.08767158	      0.00000000	      0.00000000	      4.55913548	    -14.17694471	     -4.92313366	     52.53446342	     47.81842375	      0.00000000	      0.00000000
     27.60364286	     -0.61171161	     -7.26962171	      0.03495253	      0.88251898	      0.93154026	      0.45858638	      8.91707729	      4.97228531	    -15.30393496	     14.98235715	     14.98235715	      7.87647530	     -5.58414033	     -6.77167464	     22.47068442	    -15.44418291	     -0.90030512	     64.10313097	     64.10313097	      6.85672494	    -19.12928478	     14.37984456	    -11.76447756	      8.57492751	      3.30059447	     21.91519585	    -14.41615536	      4.13877655	     52.99869540	     44.94471945	      0.00000000	      0.00000000	      4.79301859	    -13.59925280	     -5.54063580	     49.32631881	     47.78771509	      0.00000000	      0.00000000
     27.61628571	     -0.65444773	     -7.29740041	      0.37529513	      0.88168639	      0.93158780	      0.46017823	      8.57104301	      5.14344265	    -15.48525830	     14.79898244	     14.79898244	      8.12621593	     -5.66294613	     -6.75211606	     24.38904994	    -15.49163761	     -0.22607576	     65.70157116	     65.70157116	      5.95823656	    -19.19552827	     14.76842668	    -11.91400413	      8.49555588	      3.09996478	     23.74975673	    -14.16534288	      4.08366718	     54.48324101	     44.90847118	      0.00000000	      0.00000000	      3.97923101	    -13.50698452	     -5.47388051	     48.18958930	     47.75293306	      0.00000000	      0.00000000
     27.62892857	     -0.69194353	     -7.23295325	      0.71800937	      0.88089271	      0.93174577	      0.46156994	      8.19902568	      5.21891151	    -15.60751225	     14.57581919	     14.57581919	      8.35869637	     -5.78527277	     -6.66157546	     26.13656312	    -15.35877557	      0.32321699	     66.67723070	     66.67723070	      5.54276301	    -19.23654783	     15.41538014	    -12.00296699	      8.32779716	      2.67261639	     25.47393898	    -13.80745492	      4.24005832	     56.53078403	     44.84444700	      0.00000000	      0.00000000	      3.22304376	    -13.41330157	     -5.51987166	     46.45164422	     47.72140418	      0.00000000	      0.00000000
     27.64157143	     -0.75722571	     -7.06825231	      1.02561684	      0.88006838	      0.93213322	      0.46274875	      7.85125643	      5.16782583	    -15.71965647	     14.35564773	     14.35564773	      8.61616500	     -5.81648367	     -6.31740261	     27.73564954	    -15.02598761	      0.72382414	     67.00111292	     67.00111292	      5.94257571	    -19.24652667	     17.35440962	    -12.22191639	      8.04854925	      3.28363531	     26.03474201	    -14.85053385	      5.28818776	     60.75552070	     44.69822412	      0.00000000	      0.00000000	      4.02889632	    -12.56680868	     -6.38522847	     42.35739876	     47.72382195	      0.00000000	      0.00000000
     27.65421429	     -0.86327685	     -6.96058332	      1.36559974	      0.87931303	      0.93240050	      0.46385075	      7.49789954	      5.18987542	    -15.86712819	     14.03056972	     14.03056972	      8.78659160	     -5.85510526	     -6.23648029	     29.18259870	    -14.77806014	      0.97538795	     66.60082501	     66.60082501	      6.02018216	    -19.26631759	     17.36260026	    -12.35496685	      7.81091260	      3.01856952	     27.74832396	    -14.50133539	      5.11918206	     62.27241374	     44.66620102	      0.00000000	      0.00000000	      3.17214288	    -12.42877296	     -6.33764973	     41.29828924	     47.69199154	      0.00000000	      0.00000000
     27.66685714	     -0.92957746	     -6.80106091	      1.75050666	      0.87868990	      0.93279405	      0.46476032	      7.04173434	      5.16273745	    -16.02121985	     13.61637200	     13.61637200	      8.95609982	     -5.85864420	     -6.08663917	     30.39717454	    -14.43130983	      1.11316042	     65.53625393	     65.53625393	      6.36637405	    -19.26612371	     17.44899918	    -12.48684988	      7.51590628	      2.53764129	     29.21270553	    -14.09786608	      5.18401502	     64.59344272	     44.60142322	      0.00000000	      0.00000000	      2.43725905	    -12.24001534	     -6.39650857	     39.47643365	     47.66232652	      0.00000000	      0.00000000
     27.67950000	     -1.06312612	     -6.63506946	      2.08267274	      0.87813909	      0.93309956	      0.46550581	      6.66691496	      5.10182885	    -16.25165642	     13.24761910	     13.24761910	      9.22282355	     -5.74780883	     -5.80671958	     31.47579674	    -14.06051992	      1.09516389	     63.84531345	     63.84531345	      6.88887244	    -19.26046159	     17.60266183	    -12.59090850	      7.29227199	      3.33547193	     29.48433295	    -15.14773646	      5.41424455	     68.78720510	     44.50582243	      0.00000000	      0.00000000	      3.37145834	    -11.46921662	     -7.08532795	     35.60419494	     47.66831085	      0.00000000	      0.00000000
     27.69214286	     -1.19525349	     -6.41935825	      2.44394056	      0.87767015	      0.93339446	      0.46608818	      6.26008449	      4.99672300	    -16.41056853	     12.82012872	     12.82012872	      9.37107636	     -5.76739828	     -5.71948625	     32.33793960	    -13.58977319	      0.99577503	     61.54285613	     61.54285613	      7.42993679	    -19.23830894	     17.59939548	    -12.67258464	      6.96195292	      2.97731811	     30.93963943	    -14.67644858	      5.20863020	     70.36778765	     44.47527867	      0.00000000	      0.00000000	      2.52003297	    -11.33094342	     -7.07885138	     34.58922306	     47.63994689	      0.00000000	      0.00000000
     27.70478571	     -1.34125621	     -6.29025892	      2.81910570	      0.87729132	      0.93353380	      0.46646407	      5.87097357	      4.95063433	    -16.73240966	     12.42082062	     12.42082062	      9.58292810	     -5.53257161	     -5.61817416	     33.05059026	    -13.13680152	      0.93522134	     58.74236042	     58.74236042	      7.80073982	    -19.21462490	     17.11383543	    -12.76947993	      6.77576628	      3.41209507	     31.46083814	    -15.24500792	      5.02394192	     73.87255660	     44.42563701	      0.00000000	      0.00000000	      2.85930049	    -10.74795088	     -7.52101448	     31.79955599	     47.62838059	      0.00000000	      0.00000000
